<svg xmlns="http://www.w3.org/2000/svg" viewBox="0 0 771.02 931.35"><defs><style>.cls-1{fill:#282560;stroke:#fedd10;stroke-width:12.37px;}.cls-1,.cls-2,.cls-3,.cls-4,.cls-5,.cls-6,.cls-8{stroke-miterlimit:10;}.cls-2{fill:#29abe2;}.cls-2,.cls-3,.cls-4,.cls-5,.cls-8{stroke:#fcee1f;}.cls-2,.cls-4,.cls-5,.cls-6,.cls-8{stroke-width:2.66px;}.cls-3,.cls-5,.cls-6{fill:#416b9e;}.cls-3{stroke-linecap:round;stroke-width:3.82px;}.cls-4{fill:#23afe5;}.cls-6{stroke:#f9ed21;}.cls-7{fill:#231f20;}.cls-8{fill:#fcee1f;}.cls-9{fill:#f2f2f2;}.cls-10{fill:#eb2227;}</style></defs><title>logo</title><g id="Layer_2" data-name="Layer 2"><g id="Layer_1-2" data-name="Layer 1"><path class="cls-1" d="M6.18,6.18H764.84a0,0,0,0,1,0,0V596.74A328.43,328.43,0,0,1,436.42,925.17H334.61A328.43,328.43,0,0,1,6.18,596.74V6.18A0,0,0,0,1,6.18,6.18Z"/><path class="cls-2" d="M351.61,615.63a946.69,946.69,0,0,0-57,96.87,1053.89,1053.89,0,0,0,45.4-103c.86-2.3,1.73-4.6,2.57-6.87Q347.33,609.25,351.61,615.63Z"/><path class="cls-3" d="M117.77,217.64c-.27.31-.53.64-.81,1-2.45-2.63-3.75-4.07-3.61-4.19S115,215.37,117.77,217.64Z"/><path class="cls-4" d="M629.55,185.88l.12.11c-7.35,14.33-14.36,27.94-18.85,36.65C565.3,310.93,552.07,334,541.64,374.78a380.76,380.76,0,0,0-11.37,74.79C468.16,436,418.45,437.89,397.86,437.23c-.56,0,2.79-.28,11.46-1.12L411,436h0c-2.69-12.72-4.68-38.85-13.61-60.2A256,256,0,0,0,377,336.82c1.49-4,3.12-8.13,4.9-12.3,2.85,3.59,5.21,6.68,7.24,9.53,13.4,18.82,20.35,27.15,34.23,43.83,4.58,5.49,9.63,11.41,18,17,9,6,21.1,11.07,30.08,11.36,22,.7,40.15-26.87,51.57-45.84,45.62-75.68,68.43-113.53,80.66-136.64,7.76-14.63,15.3-28.5,22.23-41l0,0c18-32.2,31.17-54,31.73-53.73S643.76,158.13,629.55,185.88Z"/><path class="cls-2" d="M643.82,795.89c-1.13.52-14.3-26.31-35.36-67.8-8.76-17.27-18.87-37.08-30.06-58.53-26.14-50.11-48.5-90.74-63.63-117.78-5.19-8.3-29.41-45.36-62-44.41-20.48.59-35.89,16-62.4,51.64l-2.46,3.33c-4.09-14.07-6.26-21.72-9.88-35.37,3.19-6.7,18.84-35,22.52-52.5,4.4-.36,0,0,4.82-.05.46,0,8.05,1.35,8.52,1.35l10.15-1.35c.26,0,11.54,2.93,11.79,2.94,35.16,5.07,34.42,2.85,69.58,7.93,10.51,2,20.4,4.06,29.58,6,7.41,27.47,23,82.32,39.63,130.1,13.69,39.42,27.46,74.39,39.06,102.46C632,768.2,645,795.37,643.82,795.89Z"/><path class="cls-2" d="M358.81,292.35l-5.49,8.29c-5.1-7.46-11-15.73-17.91-25.07-37.05-50.1-66-80.59-65.29-81.22s32.54,32.2,66.94,72.43C346,277.26,353.09,285.55,358.81,292.35Z"/><path class="cls-5" d="M443.53,196.65c-35,58.36-55.45,92.71-68.2,122.63-1.78,4.17-3.41,8.26-4.9,12.31-.55,1.48-1.09,3-1.6,4.44a385.69,385.69,0,0,0-20.2,97.71c-19.21,3.34-41.76,4.09-71.69,9.84-11.79,2.27-22.76,4.43-32.81,6.45a195.3,195.3,0,0,0-6.64-58.86c-7.13-26.07-18.63-46.27-39.15-75-35.25-49.31-69.15-84.62-80.07-96.31.28-.31.54-.64.81-1,11,8.91,41.42,36,82.3,78.47,54.66,56.78,71.75,82.65,97.26,80.21,22.87-2.17,39.23-25.8,48.75-43.28l12.48-18.88c1.86-2.8,3.68-5.57,5.49-8.29,88-132.89,110.12-165.08,110.75-164.67C476.58,142.82,464.69,161.35,443.53,196.65Z"/><path class="cls-5" d="M467.34,802l-1.36.33c-24.66-46.53-43.62-85.15-57-113.2-9-18.83-23.61-50-48.56-87.22q-4.49-6.66-9.42-13.59c-.23-.31-.45-.64-.68-1-37.94-52.94-53.66-55.92-61.16-56.15C271.64,530.65,255.8,544,219,595.85a1183.25,1183.25,0,0,0-76,122.42.33.33,0,0,1-.13-.11c7.41-14.87,27.07-55.5,44.58-102.27C201.65,577.8,235,514.33,240.46,492.15c49-9,68.2-3.81,117.16-12.83,2.62,10.69,10.62,38.3,13.53,49.29q5.42,20.48,11.54,41.59,8.83,30.49,19.27,62.24C422.32,694.27,444.63,750.84,467.34,802Z"/><polygon class="cls-5" points="324.02 267.34 312.61 270.77 311 271.25 279 280.86 248.21 270.36 241.96 268.23 232.93 265.15 281.27 252.38 324.02 267.34"/><path class="cls-6" d="M312.72,270.63l.3,7.94c.57,14.83-16.9,29.2-33.69,30.79-15.19,1.46-34.07-7.16-36.55-21.25a16.85,16.85,0,0,1-.27-2.45l-.67-17.57,6.26,2.14L279,280.77l32.11-9.65Z"/><polygon class="cls-4" points="521.09 285.7 509.55 288.69 507.92 289.11 475.57 297.49 445.21 285.82 439.05 283.45 430.14 280.03 478.94 269.12 521.09 285.7"/><path class="cls-4" d="M509.66,288.56v7.94c0,14.84-18,28.54-34.84,29.49-15.24.86-33.77-8.47-35.72-22.64a16.86,16.86,0,0,1-.17-2.46V283.31l6.18,2.38,30.47,11.71L508,289Z"/><path class="cls-7" d="M528.37,488.43c-21.67-.68-43.65-3.88-65-7-24.47-3.57-49.79-7.26-75-7.26s-50.87,3.68-75.59,7.24c-21.58,3.1-43.82,6.3-65.58,7,1.89-11.05,3-25.88,3-41.61,0-1.64,0-3.25,0-4.84,0-.91,0-1.81,0-2.7,22.45-.58,45.06-3.93,67-7.18,23.61-3.5,48-7.11,71.68-7.12s47.52,3.61,70.73,7.1c21.48,3.23,43.62,6.55,65.8,7.15-.12,3.34-.18,6.93-.18,10.81A222.26,222.26,0,0,0,528.37,488.43Z"/><path class="cls-7" d="M388.9,431.51c23,0,45.69,3.41,69.73,7,19.57,3,39.7,6,60,7,0,1.46,0,3,0,4.5a243.21,243.21,0,0,0,2,31.52c-18.47-1.07-37-3.76-56.32-6.58-24.71-3.6-50.26-7.32-76-7.33s-51.54,3.72-76.5,7.31c-19.6,2.82-38.36,5.52-57,6.57a292.75,292.75,0,0,0,1.89-34.71c0-.41,0-.81,0-1.21,20.71-1,41.35-4,61.43-7,24.45-3.62,47.55-7.05,70.72-7.05h0m0-13.14h0c-48.27,0-97,14.38-145.29,14.38.17,4.47,0,9.15,0,14,0,20.35-1.82,38.13-4.55,48.31h0c49.59,0,99.65-14.34,149.25-14.34h0c49.56,0,98.64,14.37,148.2,14.38-2.73-10.67-4.75-26.93-4.75-45.13,0-6,.14-11.8.5-17.29h0c-47.95,0-95.41-14.34-143.36-14.34Z"/><path class="cls-8" d="M239,495.09c2.73-10.18,4.55-28,4.55-48.31,0-4.88.17-9.56,0-14,48.27,0,97-14.37,145.29-14.38,48,0,95.45,14.35,143.42,14.34-.36,5.49-.5,11.26-.5,17.29,0,18.2,2,34.46,4.75,45.13-49.56,0-98.64-14.37-148.2-14.38S288.64,495.1,239,495.09Z"/><circle class="cls-9" cx="279.51" cy="443.53" r="9.41"/><circle class="cls-9" cx="258" cy="488.02" r="6.72"/><circle class="cls-9" cx="385.03" cy="471.56" r="5.08"/><circle class="cls-9" cx="467.34" cy="477.24" r="9.41"/><circle class="cls-9" cx="316.81" cy="474.31" r="11.5"/><circle class="cls-9" cx="358.81" cy="440.85" r="11.5"/><circle class="cls-9" cx="408.7" cy="436.38" r="9.82"/><circle class="cls-9" cx="445.18" cy="429.35" r="4.91"/><circle class="cls-9" cx="277.44" cy="469.4" r="4.91"/><circle class="cls-9" cx="476.75" cy="434.12" r="4.91"/><circle class="cls-9" cx="430.14" cy="462.17" r="4.91"/><path class="cls-10" d="M268.13,475.64l-3.1.58a.67.67,0,0,1-.9-.61L260,454a.7.7,0,0,1,.65-.91q6-1.14,12-2.17a.68.68,0,0,1,.89.63L274,454a.69.69,0,0,1-.63.89q-3.77.64-7.54,1.33c-.3.06-.42.22-.37.48l1,5.6a.4.4,0,0,0,.53.35c2.11-.39,4.23-.76,6.35-1.13a.69.69,0,0,1,.91.62l.42,2.43a.71.71,0,0,1-.64.93c-2.11.36-4.21.74-6.32,1.12-.29.05-.42.21-.37.48l1.41,7.69A.67.67,0,0,1,268.13,475.64Z"/><path class="cls-10" d="M289.28,448.24l3.18-.46c.56-.08.87.13.94.61q1.16,8.36,2.33,16.72a5.84,5.84,0,0,1-1,4.6,6.24,6.24,0,0,1-4.22,2.2l-4,.61a6.32,6.32,0,0,1-4.71-.81,5.93,5.93,0,0,1-2.29-4.13q-1.38-8.31-2.74-16.62a.69.69,0,0,1,.66-.89l3.22-.52a.7.7,0,0,1,.91.64q1.31,8.21,2.59,16.42a1.84,1.84,0,0,0,2.47,1.81l2.54-.39a2.36,2.36,0,0,0,1.6-.74,2.29,2.29,0,0,0,.25-1.73q-1.2-8.22-2.42-16.44A.7.7,0,0,1,289.28,448.24Z"/><path class="cls-10" d="M308.43,469.48l-3.08.38q-.81.11-.9-.66-1.17-9.12-2.33-18.23a.36.36,0,0,0-.46-.35l-4.3.56a.7.7,0,0,1-.9-.65l-.33-2.48a.69.69,0,0,1,.69-.87q7.17-1,14.35-1.78a.7.7,0,0,1,.88.68l.28,2.48a.7.7,0,0,1-.71.86l-4.3.5c-.31,0-.44.18-.41.45q1.09,9.13,2.2,18.26A.68.68,0,0,1,308.43,469.48Z"/><path class="cls-10" d="M327.37,443.77l3.2-.28c.55-.05.85.17.89.66q.71,8.42,1.4,16.82a5.9,5.9,0,0,1-1.23,4.55,6.29,6.29,0,0,1-4.34,2l-4,.38a6.27,6.27,0,0,1-4.64-1.07,6,6,0,0,1-2.06-4.25l-1.8-16.75c-.06-.51.18-.79.71-.85l3.23-.33a.69.69,0,0,1,.88.68q.82,8.27,1.67,16.54a1.83,1.83,0,0,0,2.36,1.94l2.55-.24a2.33,2.33,0,0,0,1.63-.65,2.27,2.27,0,0,0,.35-1.71q-.75-8.28-1.49-16.55A.69.69,0,0,1,327.37,443.77Z"/><path class="cls-10" d="M341.85,466.28l-3.12.23a.68.68,0,0,1-.83-.71l-1.68-22A.7.7,0,0,1,337,443c3-.23,6.05-.43,9.07-.62a6.47,6.47,0,0,1,4.74,1.31,5.76,5.76,0,0,1,1.91,4.34l.15,2.86c.14,2.76-.88,4.65-3,5.68v.15q2.24,4,4.41,7.95c.25.58.06.88-.58.91l-3,.17a2.34,2.34,0,0,1-1-.1,1.06,1.06,0,0,1-.51-.59c-1.39-2.57-2.78-5.13-4.2-7.68l-2.49.16c-.3,0-.44.17-.42.44l.51,7.5A.68.68,0,0,1,341.85,466.28Zm.33-12.49,3.68-.24a2.65,2.65,0,0,0,1.73-.6,2.08,2.08,0,0,0,.47-1.63c-.06-.95-.12-1.9-.17-2.86a2.14,2.14,0,0,0-.67-1.61,2.59,2.59,0,0,0-1.81-.41l-3.71.25c-.28,0-.41.16-.39.43.14,2.1.29,4.2.43,6.3A.36.36,0,0,0,342.18,453.79Z"/><path class="cls-10" d="M370.91,464.89q-6,.15-12.05.42a.69.69,0,0,1-.81-.73q-.49-11-1-22c0-.51.23-.78.77-.8q6.24-.28,12.48-.44a.68.68,0,0,1,.78.75l.06,2.5a.68.68,0,0,1-.74.79c-2.64.06-5.29.15-7.93.25-.3,0-.45.15-.44.42.06,1.59.12,3.18.19,4.77,0,.26.16.39.46.38,2.15-.08,4.29-.15,6.44-.21a.69.69,0,0,1,.81.75l.06,2.49a.69.69,0,0,1-.76.8l-6.4.21c-.3,0-.44.15-.43.42.07,1.69.13,3.39.2,5.09,0,.27.16.4.46.39q3.87-.15,7.74-.25a.67.67,0,0,1,.76.75c0,.84.05,1.67.07,2.5C371.64,464.61,371.4,464.88,370.91,464.89Z"/><path class="cls-10" d="M396.75,464.72q-6.08-.08-12.13-.05a.68.68,0,0,1-.78-.76q-.07-11-.14-22.06c0-.51.26-.77.8-.77h3.24c.54,0,.8.26.8.77q0,9.18,0,18.35c0,.27.15.4.44.4,2.61,0,5.22,0,7.83.06.49,0,.74.28.73.82l0,2.49C397.49,464.47,397.24,464.73,396.75,464.72Z"/><path class="cls-10" d="M413.22,465.14q-6-.22-12.05-.35a.68.68,0,0,1-.76-.78q.21-11,.41-22.05c0-.52.28-.77.82-.76q6.24.14,12.48.36a.68.68,0,0,1,.73.8c0,.83-.07,1.67-.1,2.5a.68.68,0,0,1-.79.74q-4-.15-7.93-.26c-.3,0-.45.13-.46.39l-.12,4.77c0,.27.14.41.44.42,2.14.05,4.29.12,6.43.2a.69.69,0,0,1,.76.8l-.09,2.49a.69.69,0,0,1-.81.74l-6.4-.2c-.3,0-.45.13-.46.4,0,1.7-.09,3.39-.13,5.09,0,.27.14.41.43.42q3.88.11,7.75.25c.5,0,.73.28.71.8L414,464.4C414,464.91,413.71,465.16,413.22,465.14Z"/><path class="cls-10" d="M420.51,465.46,417,465.3c-.45,0-.58-.29-.41-.79q3.39-10.89,7-21.75a1.09,1.09,0,0,1,1.18-.71l5.07.29a1,1,0,0,1,1.1.84q2.31,11.19,4.44,22.4c.11.53-.06.77-.5.74l-3.53-.24a.76.76,0,0,1-.54-.2,1.25,1.25,0,0,1-.19-.62c-.25-1.36-.51-2.73-.77-4.09-2.41-.16-4.82-.29-7.24-.42-.41,1.33-.82,2.65-1.24,4a1,1,0,0,1-.27.59A.7.7,0,0,1,420.51,465.46Zm6.43-18.84q-1.67,5.22-3.29,10.44c1.84.1,3.68.2,5.52.32-.67-3.59-1.37-7.17-2.07-10.75Z"/><path class="cls-10" d="M438.6,465.83q.86-11,1.69-22c0-.52.32-.75.86-.71,3.13.24,6.27.51,9.4.8a6.42,6.42,0,0,1,4.47,2,5.74,5.74,0,0,1,1.21,4.56l-1.17,11.58A5.9,5.9,0,0,1,453,466.3a6.19,6.19,0,0,1-4.61,1.12c-3-.27-6-.53-9.08-.77A.68.68,0,0,1,438.6,465.83ZM444,463l4,.35a2.37,2.37,0,0,0,1.73-.34,2.26,2.26,0,0,0,.65-1.61l1.05-11.15a2.28,2.28,0,0,0-.36-1.71,2.45,2.45,0,0,0-1.67-.65l-4.13-.36a.37.37,0,0,0-.45.37q-.62,7.33-1.22,14.66A.36.36,0,0,0,444,463Z"/><path class="cls-10" d="M471.62,470q-6-.77-12-1.42a.68.68,0,0,1-.68-.85q1.17-11,2.36-21.93a.69.69,0,0,1,.88-.68q6.21.68,12.42,1.47a.68.68,0,0,1,.66.86c-.11.83-.21,1.65-.32,2.48a.67.67,0,0,1-.85.66q-3.94-.49-7.89-.95c-.3,0-.47.08-.5.34l-.54,4.74c0,.27.1.42.4.46,2.13.24,4.27.5,6.4.77a.69.69,0,0,1,.69.86c-.1.83-.21,1.65-.31,2.48a.69.69,0,0,1-.88.66c-2.12-.26-4.24-.52-6.36-.76-.3,0-.47.08-.5.35-.19,1.69-.39,3.37-.58,5.06,0,.27.1.42.4.46,2.57.29,5.14.61,7.71.93a.67.67,0,0,1,.63.86c-.1.83-.21,1.65-.31,2.48A.68.68,0,0,1,471.62,470Z"/><path class="cls-10" d="M480.3,471.13l-3.11-.43a.68.68,0,0,1-.66-.87L479.47,448a.7.7,0,0,1,.9-.66q4.51.62,9,1.29a6.46,6.46,0,0,1,4.37,2.26,5.77,5.77,0,0,1,1,4.65l-.45,2.83c-.44,2.73-1.83,4.36-4.17,4.92l0,.14q1.37,4.35,2.67,8.71c.13.61-.13.87-.76.77l-3-.47a2.15,2.15,0,0,1-.93-.29,1.09,1.09,0,0,1-.38-.69c-.82-2.8-1.66-5.59-2.51-8.39l-2.48-.36c-.3,0-.46.07-.5.34q-.54,3.72-1.06,7.45A.68.68,0,0,1,480.3,471.13ZM483.23,459l3.65.53a2.65,2.65,0,0,0,1.83-.22,2,2,0,0,0,.8-1.5c.14-.94.28-1.88.43-2.83a2.16,2.16,0,0,0-.32-1.72,2.65,2.65,0,0,0-1.69-.77l-3.69-.54c-.28,0-.44.08-.47.35q-.45,3.12-.89,6.24A.36.36,0,0,0,483.23,459Z"/><path class="cls-10" d="M496.81,467.57l.12-.72a.69.69,0,0,1,.9-.63l3.14.53a.68.68,0,0,1,.64.89c0,.09,0,.19-.05.29a2.52,2.52,0,0,0,.23,2,3.07,3.07,0,0,0,1.93.86l1.72.31a3,3,0,0,0,2.1-.18,2.83,2.83,0,0,0,.93-1.92c0-.14.06-.29.08-.43a1.83,1.83,0,0,0-.57-1.77,4.7,4.7,0,0,0-2-1,26.29,26.29,0,0,1-2.72-.91,19.75,19.75,0,0,1-2.65-1.28,4.41,4.41,0,0,1-1.85-2.28,7,7,0,0,1-.27-3.82l.21-1.27a5.76,5.76,0,0,1,2.38-4.1,6.49,6.49,0,0,1,4.87-.77l3.77.67a6.57,6.57,0,0,1,4.35,2.4,5.81,5.81,0,0,1,.83,4.68l-.13.68a.7.7,0,0,1-.93.61l-3.17-.59a.69.69,0,0,1-.64-.9l0-.22a2.49,2.49,0,0,0-.21-2,3.15,3.15,0,0,0-2-.88l-1.46-.26a2.9,2.9,0,0,0-2.18.2,3.23,3.23,0,0,0-.92,2.09l-.12.69c-.19,1.13.71,1.95,2.72,2.48a19.14,19.14,0,0,1,5.38,2.25,4.76,4.76,0,0,1,1.81,2.34,6.76,6.76,0,0,1,.19,3.71c-.08.41-.16.82-.23,1.23a5.92,5.92,0,0,1-2.44,4.05,6.27,6.27,0,0,1-4.73.74l-4-.71a6.26,6.26,0,0,1-4.19-2.32A5.92,5.92,0,0,1,496.81,467.57Z"/></g></g></svg>